<?xml version="1.0" encoding="utf-8"?>
<!-- Generator: Adobe Illustrator 26.0.2, SVG Export Plug-In . SVG Version: 6.00 Build 0)  -->
<svg version="1.1" id="图层_3" xmlns="http://www.w3.org/2000/svg" xmlns:xlink="http://www.w3.org/1999/xlink" x="0px" y="0px"
	 viewBox="0 0 200 120" style="enable-background:new 0 0 200 120;" xml:space="preserve">
<style type="text/css">
	.st0{opacity:0.33;fill:#FFFFFF;}
	.st1{opacity:0.67;fill:#FFFFFF;}
	.st2{opacity:0.5;fill:#FFFFFF;}
</style>
<path class="st0" d="M185.21,49.79l-21-8.22c-5.33-2.09-14.06-2.09-19.39,0l-21,8.22c-5.33,2.09-5.33,5.5,0,7.59l21,8.22
	c5.33,2.09,14.06,2.09,19.39,0l21-8.22C190.55,55.29,190.55,51.88,185.21,49.79z"/>
<path class="st1" d="M118.95,68.44c-0.71-5.31,2.15-8.32,6.37-6.7l16.6,6.39c4.21,1.62,8.24,7.29,8.96,12.6l2.81,20.9
	c0.71,5.31-2.15,8.32-6.37,6.7l-16.6-6.39c-4.21-1.62-8.24-7.29-8.96-12.6L118.95,68.44z"/>
<path class="st2" d="M189.71,68.54c0.84-5.29-1.61-8.31-5.45-6.72l-15.1,6.27c-3.83,1.59-7.65,7.22-8.49,12.51l-3.3,20.83
	c-0.84,5.29,1.61,8.31,5.45,6.72l15.1-6.27c3.83-1.59,7.65-7.22,8.49-12.51L189.71,68.54z"/>
</svg>
