<?xml version="1.0" encoding="utf-8"?>
<!-- Generator: Adobe Illustrator 26.0.2, SVG Export Plug-In . SVG Version: 6.00 Build 0)  -->
<svg version="1.1" id="图层_1" xmlns="http://www.w3.org/2000/svg" xmlns:xlink="http://www.w3.org/1999/xlink" x="0px" y="0px"
	 viewBox="0 0 200 120" style="enable-background:new 0 0 200 120;" xml:space="preserve">
<style type="text/css">
	.st0{opacity:0.4;}
	.st1{fill:#FFFFFF;}
	.st2{opacity:0.5;fill:#FFFFFF;}
</style>
<g id="XMLID_00000102514739221309374840000016518641437843527564_" class="st0">
	<g>
		<path class="st1" d="M190,72v28c0,5.5-4.5,10-10,10h-52c-5.5,0-10-4.5-10-10V72c0-0.34,0.02-0.67,0.05-1H128h25
			c5.18,0,9.45-3.95,9.95-9H180C185.5,62,190,66.5,190,72z"/>
		<path class="st2" d="M163,61c0,0.34-0.02,0.67-0.05,1h-19.9c-0.03-0.33-0.05-0.66-0.05-1c0-5.52,4.48-10,10-10S163,55.48,163,61z"
			/>
		<path class="st2" d="M143.05,62h19.9c-0.5,5.05-4.77,9-9.95,9S143.55,67.05,143.05,62z"/>
		<path class="st2" d="M128,51h25c-5.52,0-10,4.48-10,10c0,0.34,0.02,0.67,0.05,1h-5.1c0.03-0.33,0.05-0.66,0.05-1
			C138,55.48,133.52,51,128,51z"/>
		<path class="st2" d="M153,71h-25c5.18,0,9.45-3.95,9.95-9h5.1C143.55,67.05,147.82,71,153,71z"/>
		<path class="st2" d="M138,61c0,0.34-0.02,0.67-0.05,1H128c-3.48,0-6.55,1.8-8.34,4.51C118.61,64.93,118,63.04,118,61
			c0-5.52,4.48-10,10-10C133.52,51,138,55.48,138,61z"/>
		<path class="st2" d="M128,62h9.95c-0.5,5.05-4.77,9-9.95,9c-3.48,0-6.55-1.78-8.34-4.49C121.45,63.8,124.52,62,128,62z"/>
		<path class="st2" d="M128,71h-9.95c0.16-1.65,0.73-3.18,1.61-4.49C121.45,69.22,124.52,71,128,71z"/>
		<path class="st2" d="M119.66,66.51c-0.88,1.31-1.45,2.84-1.61,4.49H118V61C118,63.04,118.61,64.93,119.66,66.51z"/>
	</g>
</g>
</svg>
